<mxfile host="app.diagrams.net" modified="2023-06-21T17:23:21.568Z" agent="Mozilla/5.0 (X11; Ubuntu; Linux x86_64; rv:109.0) Gecko/20100101 Firefox/113.0" etag="JVw_4gMQSp30s0Adtm96" version="21.3.7" type="device">
  <diagram name="Page-1" id="Lbyp8ivZwAoF35ZBQ6Mc">
    <mxGraphModel dx="1985" dy="1763" grid="1" gridSize="10" guides="1" tooltips="1" connect="1" arrows="1" fold="1" page="1" pageScale="1" pageWidth="850" pageHeight="1100" math="0" shadow="0">
      <root>
        <mxCell id="0" />
        <mxCell id="1" parent="0" />
        <mxCell id="r6mf9lwoFU5cMwTbuBvN-42" style="edgeStyle=orthogonalEdgeStyle;rounded=0;orthogonalLoop=1;jettySize=auto;html=1;exitX=1;exitY=0.5;exitDx=0;exitDy=0;entryX=0;entryY=0.5;entryDx=0;entryDy=0;curved=1;" edge="1" parent="1" source="r6mf9lwoFU5cMwTbuBvN-1" target="r6mf9lwoFU5cMwTbuBvN-40">
          <mxGeometry relative="1" as="geometry" />
        </mxCell>
        <mxCell id="r6mf9lwoFU5cMwTbuBvN-1" value="&lt;div style=&quot;font-size: 13px;&quot;&gt;/&lt;b style=&quot;font-size: 13px;&quot;&gt;start_point&lt;/b&gt;&lt;/div&gt;geometry_msgs/Point" style="ellipse;whiteSpace=wrap;html=1;fontSize=13;fillColor=#f5f5f5;strokeColor=#666666;fontColor=#333333;" vertex="1" parent="1">
          <mxGeometry x="230" y="20" width="230" height="70" as="geometry" />
        </mxCell>
        <mxCell id="r6mf9lwoFU5cMwTbuBvN-22" style="edgeStyle=orthogonalEdgeStyle;rounded=0;orthogonalLoop=1;jettySize=auto;html=1;exitX=1;exitY=0.5;exitDx=0;exitDy=0;entryX=0;entryY=0.5;entryDx=0;entryDy=0;curved=1;" edge="1" parent="1" source="r6mf9lwoFU5cMwTbuBvN-2" target="r6mf9lwoFU5cMwTbuBvN-10">
          <mxGeometry relative="1" as="geometry" />
        </mxCell>
        <mxCell id="r6mf9lwoFU5cMwTbuBvN-23" style="edgeStyle=orthogonalEdgeStyle;rounded=0;orthogonalLoop=1;jettySize=auto;html=1;exitX=1;exitY=0.5;exitDx=0;exitDy=0;entryX=0;entryY=0.5;entryDx=0;entryDy=0;curved=1;" edge="1" parent="1" source="r6mf9lwoFU5cMwTbuBvN-2" target="r6mf9lwoFU5cMwTbuBvN-9">
          <mxGeometry relative="1" as="geometry">
            <Array as="points">
              <mxPoint x="230" y="155" />
            </Array>
          </mxGeometry>
        </mxCell>
        <mxCell id="r6mf9lwoFU5cMwTbuBvN-25" style="edgeStyle=orthogonalEdgeStyle;rounded=0;orthogonalLoop=1;jettySize=auto;html=1;exitX=1;exitY=0.5;exitDx=0;exitDy=0;entryX=0;entryY=0.5;entryDx=0;entryDy=0;curved=1;" edge="1" parent="1" source="r6mf9lwoFU5cMwTbuBvN-2" target="r6mf9lwoFU5cMwTbuBvN-1">
          <mxGeometry relative="1" as="geometry" />
        </mxCell>
        <mxCell id="r6mf9lwoFU5cMwTbuBvN-2" value="&lt;div style=&quot;font-size: 15px;&quot;&gt;replanner&lt;/div&gt;" style="rounded=1;whiteSpace=wrap;html=1;fontSize=15;fontStyle=1;fillColor=#bac8d3;strokeColor=#23445d;" vertex="1" parent="1">
          <mxGeometry x="-117.5" y="125" width="170" height="60" as="geometry" />
        </mxCell>
        <mxCell id="r6mf9lwoFU5cMwTbuBvN-37" style="edgeStyle=orthogonalEdgeStyle;rounded=0;orthogonalLoop=1;jettySize=auto;html=1;exitX=0.5;exitY=1;exitDx=0;exitDy=0;entryX=0.5;entryY=0;entryDx=0;entryDy=0;" edge="1" parent="1" source="r6mf9lwoFU5cMwTbuBvN-4" target="r6mf9lwoFU5cMwTbuBvN-13">
          <mxGeometry relative="1" as="geometry" />
        </mxCell>
        <mxCell id="r6mf9lwoFU5cMwTbuBvN-4" value="&lt;div style=&quot;font-size: 15px;&quot;&gt;smooth_trajectory_generator&lt;/div&gt;" style="rounded=1;whiteSpace=wrap;html=1;fontSize=15;fontStyle=1;fillColor=#bac8d3;strokeColor=#23445d;" vertex="1" parent="1">
          <mxGeometry x="570" y="220" width="260" height="60" as="geometry" />
        </mxCell>
        <mxCell id="r6mf9lwoFU5cMwTbuBvN-35" style="edgeStyle=orthogonalEdgeStyle;rounded=0;orthogonalLoop=1;jettySize=auto;html=1;exitX=0.5;exitY=1;exitDx=0;exitDy=0;entryX=0.5;entryY=0;entryDx=0;entryDy=0;" edge="1" parent="1" source="r6mf9lwoFU5cMwTbuBvN-40" target="r6mf9lwoFU5cMwTbuBvN-12">
          <mxGeometry relative="1" as="geometry">
            <mxPoint x="700" y="-5" as="sourcePoint" />
          </mxGeometry>
        </mxCell>
        <mxCell id="r6mf9lwoFU5cMwTbuBvN-43" style="edgeStyle=orthogonalEdgeStyle;rounded=0;orthogonalLoop=1;jettySize=auto;html=1;exitX=1;exitY=0.5;exitDx=0;exitDy=0;" edge="1" parent="1" source="r6mf9lwoFU5cMwTbuBvN-8" target="r6mf9lwoFU5cMwTbuBvN-40">
          <mxGeometry relative="1" as="geometry" />
        </mxCell>
        <mxCell id="r6mf9lwoFU5cMwTbuBvN-8" value="&lt;div style=&quot;font-size: 13px;&quot;&gt;&lt;b style=&quot;font-size: 13px;&quot;&gt;/goal_point&lt;/b&gt;&lt;/div&gt;geometry_msgs/Point" style="ellipse;whiteSpace=wrap;html=1;fontSize=13;fillColor=#f5f5f5;strokeColor=#666666;fontColor=#333333;" vertex="1" parent="1">
          <mxGeometry x="230" y="-70" width="230" height="70" as="geometry" />
        </mxCell>
        <mxCell id="r6mf9lwoFU5cMwTbuBvN-33" style="edgeStyle=orthogonalEdgeStyle;rounded=0;orthogonalLoop=1;jettySize=auto;html=1;exitX=1;exitY=0.5;exitDx=0;exitDy=0;entryX=0;entryY=0.5;entryDx=0;entryDy=0;curved=1;" edge="1" parent="1" source="r6mf9lwoFU5cMwTbuBvN-9" target="r6mf9lwoFU5cMwTbuBvN-40">
          <mxGeometry relative="1" as="geometry">
            <mxPoint x="570" y="-35" as="targetPoint" />
            <Array as="points">
              <mxPoint x="530" y="155" />
              <mxPoint x="530" y="-35" />
            </Array>
          </mxGeometry>
        </mxCell>
        <mxCell id="r6mf9lwoFU5cMwTbuBvN-9" value="&lt;div style=&quot;font-size: 13px;&quot;&gt;/&lt;b style=&quot;font-size: 13px;&quot;&gt;activate_coverage_planning&lt;/b&gt;&lt;/div&gt;std_msgs/Bool" style="ellipse;whiteSpace=wrap;html=1;fontSize=13;fillColor=#f5f5f5;strokeColor=#666666;fontColor=#333333;" vertex="1" parent="1">
          <mxGeometry x="230" y="120" width="230" height="70" as="geometry" />
        </mxCell>
        <mxCell id="r6mf9lwoFU5cMwTbuBvN-34" style="edgeStyle=orthogonalEdgeStyle;rounded=0;orthogonalLoop=1;jettySize=auto;html=1;exitX=1;exitY=0.5;exitDx=0;exitDy=0;entryX=0;entryY=0.5;entryDx=0;entryDy=0;curved=1;" edge="1" parent="1" source="r6mf9lwoFU5cMwTbuBvN-10" target="r6mf9lwoFU5cMwTbuBvN-40">
          <mxGeometry relative="1" as="geometry">
            <mxPoint x="570" y="-35" as="targetPoint" />
          </mxGeometry>
        </mxCell>
        <mxCell id="r6mf9lwoFU5cMwTbuBvN-39" style="edgeStyle=orthogonalEdgeStyle;rounded=0;orthogonalLoop=1;jettySize=auto;html=1;exitX=1;exitY=0.5;exitDx=0;exitDy=0;entryX=0;entryY=0.5;entryDx=0;entryDy=0;curved=1;" edge="1" parent="1" source="r6mf9lwoFU5cMwTbuBvN-10" target="r6mf9lwoFU5cMwTbuBvN-4">
          <mxGeometry relative="1" as="geometry" />
        </mxCell>
        <mxCell id="r6mf9lwoFU5cMwTbuBvN-10" value="&lt;b style=&quot;font-size: 13px;&quot;&gt;/polygon&lt;/b&gt;&lt;br style=&quot;font-size: 13px;&quot;&gt;&lt;div style=&quot;font-size: 13px;&quot;&gt;polygon_coverage_msgs/PolygonWithHolesStamped&lt;/div&gt;" style="ellipse;whiteSpace=wrap;html=1;fontSize=13;fillColor=#f5f5f5;strokeColor=#666666;fontColor=#333333;" vertex="1" parent="1">
          <mxGeometry x="170" y="210" width="350" height="80" as="geometry" />
        </mxCell>
        <mxCell id="r6mf9lwoFU5cMwTbuBvN-36" style="edgeStyle=orthogonalEdgeStyle;rounded=0;orthogonalLoop=1;jettySize=auto;html=1;exitX=0.5;exitY=1;exitDx=0;exitDy=0;entryX=0.5;entryY=0;entryDx=0;entryDy=0;" edge="1" parent="1" source="r6mf9lwoFU5cMwTbuBvN-12" target="r6mf9lwoFU5cMwTbuBvN-4">
          <mxGeometry relative="1" as="geometry" />
        </mxCell>
        <mxCell id="r6mf9lwoFU5cMwTbuBvN-12" value="&lt;div style=&quot;font-size: 13px;&quot;&gt;&lt;b style=&quot;font-size: 13px;&quot;&gt;/waypoint_list&lt;/b&gt;&lt;/div&gt;geometry_msgs/PoseArray" style="ellipse;whiteSpace=wrap;html=1;fontSize=13;fillColor=#f5f5f5;strokeColor=#666666;fontColor=#333333;" vertex="1" parent="1">
          <mxGeometry x="585" y="80" width="230" height="65" as="geometry" />
        </mxCell>
        <mxCell id="r6mf9lwoFU5cMwTbuBvN-13" value="&lt;div style=&quot;font-size: 13px;&quot;&gt;&lt;b style=&quot;font-size: 13px;&quot;&gt;/trajectory&lt;/b&gt;&lt;/div&gt;geometry_msgs/PoseArray" style="ellipse;whiteSpace=wrap;html=1;fontSize=13;fillColor=#f5f5f5;strokeColor=#666666;fontColor=#333333;" vertex="1" parent="1">
          <mxGeometry x="585" y="340" width="230" height="70" as="geometry" />
        </mxCell>
        <mxCell id="r6mf9lwoFU5cMwTbuBvN-26" style="edgeStyle=orthogonalEdgeStyle;rounded=0;orthogonalLoop=1;jettySize=auto;html=1;curved=1;strokeColor=#660000;" edge="1" parent="1" source="r6mf9lwoFU5cMwTbuBvN-15" target="r6mf9lwoFU5cMwTbuBvN-8">
          <mxGeometry relative="1" as="geometry" />
        </mxCell>
        <mxCell id="r6mf9lwoFU5cMwTbuBvN-27" style="edgeStyle=orthogonalEdgeStyle;rounded=0;orthogonalLoop=1;jettySize=auto;html=1;exitX=1;exitY=0.5;exitDx=0;exitDy=0;entryX=0.009;entryY=0.314;entryDx=0;entryDy=0;entryPerimeter=0;curved=1;strokeColor=#660000;" edge="1" parent="1" source="r6mf9lwoFU5cMwTbuBvN-15" target="r6mf9lwoFU5cMwTbuBvN-1">
          <mxGeometry relative="1" as="geometry" />
        </mxCell>
        <mxCell id="r6mf9lwoFU5cMwTbuBvN-28" style="edgeStyle=orthogonalEdgeStyle;rounded=0;orthogonalLoop=1;jettySize=auto;html=1;exitX=1;exitY=0.5;exitDx=0;exitDy=0;entryX=0.022;entryY=0.3;entryDx=0;entryDy=0;entryPerimeter=0;curved=1;strokeColor=#660000;" edge="1" parent="1" source="r6mf9lwoFU5cMwTbuBvN-15" target="r6mf9lwoFU5cMwTbuBvN-9">
          <mxGeometry relative="1" as="geometry">
            <mxPoint x="230" y="140" as="targetPoint" />
          </mxGeometry>
        </mxCell>
        <mxCell id="r6mf9lwoFU5cMwTbuBvN-29" style="edgeStyle=orthogonalEdgeStyle;rounded=0;orthogonalLoop=1;jettySize=auto;html=1;exitX=1;exitY=0.5;exitDx=0;exitDy=0;entryX=0.073;entryY=0.22;entryDx=0;entryDy=0;entryPerimeter=0;curved=1;strokeColor=#660000;" edge="1" parent="1" source="r6mf9lwoFU5cMwTbuBvN-15" target="r6mf9lwoFU5cMwTbuBvN-10">
          <mxGeometry relative="1" as="geometry" />
        </mxCell>
        <mxCell id="r6mf9lwoFU5cMwTbuBvN-15" value="rviz_point_tool" style="shape=parallelogram;perimeter=parallelogramPerimeter;whiteSpace=wrap;html=1;fixedSize=1;fontSize=15;fontStyle=1;fillColor=#f8cecc;strokeColor=#b85450;" vertex="1" parent="1">
          <mxGeometry x="-130" y="-65" width="195" height="60" as="geometry" />
        </mxCell>
        <mxCell id="r6mf9lwoFU5cMwTbuBvN-21" style="edgeStyle=orthogonalEdgeStyle;rounded=0;orthogonalLoop=1;jettySize=auto;html=1;entryX=0.5;entryY=1;entryDx=0;entryDy=0;curved=1;" edge="1" parent="1" source="r6mf9lwoFU5cMwTbuBvN-16" target="r6mf9lwoFU5cMwTbuBvN-2">
          <mxGeometry relative="1" as="geometry" />
        </mxCell>
        <mxCell id="r6mf9lwoFU5cMwTbuBvN-16" value="&lt;div style=&quot;font-size: 13px;&quot;&gt;&lt;b style=&quot;font-size: 13px;&quot;&gt;/visited&lt;/b&gt;&lt;/div&gt;geometry_msgs/PoseArray" style="ellipse;whiteSpace=wrap;html=1;fontSize=13;fillColor=#f5f5f5;strokeColor=#666666;fontColor=#333333;" vertex="1" parent="1">
          <mxGeometry x="230" y="320" width="230" height="70" as="geometry" />
        </mxCell>
        <mxCell id="r6mf9lwoFU5cMwTbuBvN-38" style="edgeStyle=orthogonalEdgeStyle;rounded=0;orthogonalLoop=1;jettySize=auto;html=1;exitX=0;exitY=0.5;exitDx=0;exitDy=0;entryX=0.5;entryY=1;entryDx=0;entryDy=0;curved=1;" edge="1" parent="1" source="r6mf9lwoFU5cMwTbuBvN-17" target="r6mf9lwoFU5cMwTbuBvN-2">
          <mxGeometry relative="1" as="geometry" />
        </mxCell>
        <mxCell id="r6mf9lwoFU5cMwTbuBvN-17" value="&lt;div style=&quot;font-size: 13px;&quot;&gt;/&lt;b style=&quot;font-size: 13px;&quot;&gt;replanner_activation&lt;/b&gt;&lt;/div&gt;std_msgs/Bool" style="ellipse;whiteSpace=wrap;html=1;fontSize=13;fillColor=#f5f5f5;strokeColor=#666666;fontColor=#333333;" vertex="1" parent="1">
          <mxGeometry x="230" y="410" width="230" height="70" as="geometry" />
        </mxCell>
        <mxCell id="r6mf9lwoFU5cMwTbuBvN-20" style="edgeStyle=orthogonalEdgeStyle;rounded=0;orthogonalLoop=1;jettySize=auto;html=1;curved=1;" edge="1" parent="1" source="r6mf9lwoFU5cMwTbuBvN-18" target="r6mf9lwoFU5cMwTbuBvN-2">
          <mxGeometry relative="1" as="geometry" />
        </mxCell>
        <mxCell id="r6mf9lwoFU5cMwTbuBvN-18" value="&lt;b style=&quot;font-size: 13px;&quot;&gt;/updated_polygon&lt;/b&gt;&lt;br style=&quot;font-size: 13px;&quot;&gt;&lt;div style=&quot;font-size: 13px;&quot;&gt;polygon_coverage_msgs/PolygonWithHolesStamped&lt;/div&gt;" style="ellipse;whiteSpace=wrap;html=1;fontSize=13;fillColor=#f5f5f5;strokeColor=#666666;fontColor=#333333;" vertex="1" parent="1">
          <mxGeometry x="170" y="500" width="350" height="80" as="geometry" />
        </mxCell>
        <mxCell id="r6mf9lwoFU5cMwTbuBvN-40" value="&lt;div style=&quot;font-size: 15px;&quot;&gt;&lt;b style=&quot;font-size: 15px;&quot;&gt;coverage_planner&lt;/b&gt; &lt;br style=&quot;font-size: 15px;&quot;&gt;&lt;/div&gt;" style="rounded=0;whiteSpace=wrap;html=1;fillColor=#fff2cc;strokeColor=#d6b656;" vertex="1" parent="1">
          <mxGeometry x="570" y="-65" width="260" height="60" as="geometry" />
        </mxCell>
      </root>
    </mxGraphModel>
  </diagram>
</mxfile>
